<svg xmlns="http://www.w3.org/2000/svg" fill="none" viewBox="0 0 380 125">
  <path fill="#BCE0F3" d="M456-9H0v134.4h456V-9z"/>
  <path fill="#EDF9FF" d="M-158-53.7h517C296.4 159 22.3 131.5-158 132.5V-53.7z"/>
  <path fill="#114C6B" d="M191.6 71.2c1.5-2.4 15.3-12 15.3-12s-4.8-3.2-1.7-5c3.2-2 15.5-2 15.5-2s55-.6 60.2 0a117.2 117.2 0 0 1 39 18.1 181 181 0 0 1 25.6 2.8c11.9 2.3 15.6 5.3 16.1 6.6.5 1.4 0 7.5 0 7.5 1 1.2 1.8 2.6 2.3 4.2.4 1.8-1 12.7-2.3 13.5a16.5 16.5 0 0 1-5.9 2.3c-2.6.4-9.4.2-9.4.2s1.8-18.7-15-18.6c-17 0-9.5 18.6-9.5 18.6l-84.2-.5s.3-18.3-15.8-18c-16.2.1-14.7 16.6-14.7 16.6s-6.2-1.6-7.7-1.5c-1.6 0-3.6.5-4.8 0-1.2-.5-5.4-7.7-5.4-7.7s-.4-6.7 0-7.5a2 2 0 0 1 1.4-1l1.6-6.5s-2-7.8-.6-10.1z"/>
  <path fill="#EDF9FF" d="M223.1 62.2l19.3 10 69.5 3.1a81.5 81.5 0 0 0-14.4-11.5 50 50 0 0 0-16.7-6.4c-2-.3-45.5-1.3-50.3 0-3 .8-5.5 2.5-7.4 4.8z" opacity=".8"/>
  <path fill="#fff" d="M222.4 64l19 10.4 23.7 1.1.7 24.8h4l-.8-24.8 44 2.2c.7.8 1.1 1.9 1.3 3 0 1.6-1.6 17.8-2.3 19.2-.7 1.3-6 .8-6 .8l-66-.7a15 15 0 0 0-4.9-10c-3-2.7-6.8-4.3-11-4.5l-1.7-13.3V64z" opacity=".1"/>
  <path fill="#F73131" d="M192.7 72.4c.1-1.6 6.8-6 6.8-6l9.1-6.3h.8s-9.3 8.4-10 9.6c-.5 1.2 1.7 2.3 1.7 2.3s9-.4 9.4 0c.3.4.1 1-1.2 2.5s-2.5 3-4 3.3c-1.6.4-9.5.6-11.4 0-1.8-.6-1.3-3.8-1.2-5.4z"/>
  <path fill="#0A2E40" d="M331.5 119a16 16 0 0 0 16.1-16 16 16 0 0 0-16-16 16 16 0 0 0-16.2 16 16 16 0 0 0 16.1 16z"/>
  <path fill="#E8F5FB" d="M331.8 114.6c6.5 0 11.7-5.2 11.7-11.6 0-6.4-5.2-11.6-11.7-11.6-6.5 0-11.8 5.2-11.8 11.6 0 6.4 5.3 11.6 11.8 11.6z"/>
  <path fill="#0A2E40" d="M332.9 91.4h-2.3V103h2.3V91.4z"/>
  <path fill="#0A2E40" d="M343.7 100.6l-.7-2-11.2 3.5.7 2 11.2-3.5z"/>
  <path fill="#0A2E40" d="M338 113.2l1.8-1.3-7-9.4-1.7 1.3 7 9.4z"/>
  <path fill="#0A2E40" d="M323.2 112.4l1.8 1.3 7-9.4-1.9-1.3-7 9.4z"/>
  <path fill="#0A2E40" d="M320.7 98.2l-.7 2.1 11.2 3.6.7-2-11.2-3.7z"/>
  <path fill="#E8F5FB" d="M331.8 113a10 10 0 0 0 10-10 10 10 0 0 0-10-10 10 10 0 0 0-10 10 10 10 0 0 0 10 10z" opacity=".2"/>
  <path fill="#0A2E40" d="M331.8 106.8c2 0 4-1.7 4-3.8a4 4 0 0 0-4-4 4 4 0 0 0-4 4 4 4 0 0 0 4 3.8z"/>
  <path fill="#0A2E40" d="M331.8 107.4a4.5 4.5 0 0 0 0-9 4.5 4.5 0 1 0 0 9zM222.5 119a16 16 0 0 0 16.2-16 16 16 0 0 0-16.2-15.8 16 16 0 0 0-16 15.9 16 16 0 0 0 16 16z"/>
  <path fill="#E8F5FB" d="M222.8 114.6c6.5 0 11.8-5.2 11.8-11.6 0-6.4-5.3-11.6-11.8-11.6-6.5 0-11.8 5.2-11.8 11.6 0 6.4 5.3 11.6 11.8 11.6z"/>
  <path fill="#0A2E40" d="M224 91.4h-2.3V103h2.2V91.4z"/>
  <path fill="#0A2E40" d="M234.7 100.6l-.7-2-11.2 3.5.7 2 11.2-3.5z"/>
  <path fill="#0A2E40" d="M229 113.2l1.9-1.3-7-9.4-1.8 1.3 7 9.4z"/>
  <path fill="#0A2E40" d="M214.2 112.4l2 1.3 6.8-9.4-1.8-1.3-7 9.4z"/>
  <path fill="#0A2E40" d="M211.8 98.2l-.7 2.1 11.2 3.6.7-2-11.2-3.7z"/>
  <path fill="#E8F5FB" d="M222.8 113a10 10 0 0 0 10-10 10 10 0 0 0-10-10 10 10 0 0 0-10 10 10 10 0 0 0 10 10z" opacity=".2"/>
  <path fill="#0A2E40" d="M222.8 106.8a4 4 0 0 0 4-3.8c0-2.2-1.8-4-4-4s-4 1.8-4 4a4 4 0 0 0 4 3.8z"/>
  <path fill="#DEDEDE" d="M345.7 78.4c1.3 2 3 3.6 5 4.7 2.3 1 4.7 1.4 7.2 1.4 0 0 2.1-3.8 1.3-4.3-.7-.6-13.5-1.8-13.5-1.8z"/>
  <path fill="#114C6B" d="M241 56.7h1.3l.2 15.5-1.6-.7V56.7zm23.5 0h1.4v17l-2.1-.4.7-16.5zm2.9 0H266l.1 16.6 2.8.1-1.5-16.6z"/>
  <path fill="#E9F6FB" d="M304.6 75s-1-.6-1-1a7 7 0 0 1 .4-3.4c0-.5.4-.8.7-1a2 2 0 0 1 1.3-.4c1.7 0 3.3.4 4.7 1.4a4 4 0 0 1 1.7 3 1.2 1.2 0 0 1-.5 1.5l-.4.2c-.8.1-7-.4-7-.4z"/>
  <path fill="#0A2E40" d="M232.5 79.5v.6a7 7 0 0 0 2.8.8c1 0 2-.3 3-.8v-.6l-3 .3c-1 0-2 0-2.8-.3zm39.5 0v.6c.9.5 1.9.7 2.8.8 1 0 2-.3 3-.8v-.6l-3 .3c-1 0-1.8 0-2.8-.3z"/>
  <path fill="#E9F6FB" d="M271.2 80.5s-.4-.8 0-1.2c.4-.4 1.8-.7 3.6-.7s3.3.2 3.8.7a.8.8 0 0 1 0 1.1c-1.3-.3-2.5-.4-3.8-.5-1.2 0-2.4.2-3.6.6zm-39.5 0s-.5-.8 0-1.2c.4-.4 1.7-.7 3.6-.7 1.2 0 2.5.2 3.7.7.6.4 0 1.1 0 1.1a23 23 0 0 0-3.7-.5c-1.3 0-2.5.2-3.6.6z"/>
</svg>
